<?xml version="1.0" encoding="UTF-8"?>
<svg id="_레이어_1" data-name="레이어 1" xmlns="http://www.w3.org/2000/svg" viewBox="0 0 32 30">
  <defs>
    <style>
      .cls-1 {
        fill: none;
        stroke: #231815;
        stroke-linecap: round;
        stroke-linejoin: round;
        stroke-width: 1.3px;
      }

      .cls-2 {
        fill: #231815;
        stroke-width: 0px;
      }
    </style>
  </defs>
  <path class="cls-1" d="m18.64,9.28h2.85v4.17H7.54c-1.15,0-2.08-.93-2.08-2.08h0c0-1.15.93-2.08,2.08-2.08h.77"/>
  <line class="cls-1" x1="8.67" y1="23.73" x2="14.39" y2="23.73"/>
  <polyline class="cls-1" points="24.72 22.47 24.72 26.9 5.45 26.9 5.45 11.36"/>
  <polyline class="cls-1" points="17.96 13.44 24.72 13.44 24.72 17.76"/>
  <path class="cls-1" d="m22.16,18.06h4.39v4.23h-4.39c-1.17,0-2.12-.95-2.12-2.12h0c0-1.17.95-2.12,2.12-2.12Z"/>
  <circle class="cls-1" cx="13.47" cy="8.27" r="5.17"/>
  <polygon class="cls-2" points="15.75 7.57 14.64 7.57 13.7 7.57 13.98 4.43 11.2 8.98 12.47 8.98 13.25 8.98 12.97 12.11 15.75 7.57"/>
</svg>