<?xml version="1.0" encoding="UTF-8"?>
<svg id="_레이어_1" data-name="레이어 1" xmlns="http://www.w3.org/2000/svg" viewBox="0 0 32 30">
  <defs>
    <style>
      .cls-1 {
        stroke-linecap: round;
      }

      .cls-1, .cls-2 {
        fill: none;
        stroke: #231815;
        stroke-linejoin: round;
        stroke-width: 1.3px;
      }
    </style>
  </defs>
  <path class="cls-2" d="m22.91,16.67v-.33c0-1.8-1.47-3.27-3.27-3.27h-9.76c-1.8,0-3.27,1.47-3.27,3.27v.33c-1.2.43-2.07,1.57-2.07,2.91h0c0,1.34.87,2.48,2.07,2.91v.33c0,1.8,1.47,3.27,3.27,3.27h9.76c1.8,0,3.27-1.47,3.27-3.27v-.33c1.2-.43,2.07-1.57,2.07-2.91h0c0-1.34-.87-2.48-2.07-2.91Z"/>
  <ellipse class="cls-2" cx="18.19" cy="21.58" rx="1.4" ry="1.73"/>
  <line class="cls-1" x1="16.95" y1="15.76" x2="12.58" y2="23.39"/>
  <ellipse class="cls-2" cx="11.34" cy="17.58" rx="1.4" ry="1.73"/>
  <path class="cls-1" d="m25.68,15.62c.1-.06.21-.13.3-.2,1.32-.97,1.73-2.82.9-4.27l-.17-.29c.83-.97,1.01-2.39.34-3.56h0c-.67-1.16-2-1.71-3.25-1.48l-.17-.29c-.9-1.56-2.91-2.1-4.46-1.2l-9.73,5.62"/>
</svg>