<svg xmlns="http://www.w3.org/2000/svg" width="24" height="24" viewBox="0 0 24 24"><g transform="translate(307 -480)"><g transform="translate(1 7)"><g transform="translate(-308 473)"><rect width="20" height="20" transform="translate(1.997 2)" fill="none"/><rect width="24" height="24" fill="none"/></g><g transform="translate(-447.6 253.33)"><g transform="translate(141.6 224.67)"><g fill="#fff" stroke="#333" stroke-width="1.5"><rect width="20" height="14" rx="3" stroke="none"/><rect x="0.75" y="0.75" width="18.5" height="12.5" rx="2.25" fill="none"/></g><g transform="translate(3.92 5.48)"><line y2="3.04" transform="translate(1.52)" fill="none" stroke="#1749c2" stroke-linecap="round" stroke-width="0.5"/><line y2="3.04" transform="translate(3.04 1.52) rotate(90)" fill="none" stroke="#1749c2" stroke-linecap="round" stroke-width="0.5"/><line y2="3.04" transform="translate(2.595 0.446) rotate(45)" fill="none" stroke="#1749c2" stroke-linecap="round" stroke-width="0.5"/><line y2="3.04" transform="translate(2.595 2.595) rotate(135)" fill="none" stroke="#1749c2" stroke-linecap="round" stroke-width="0.5"/><g transform="translate(4.559)"><line y2="3.04" transform="translate(1.52)" fill="none" stroke="#1749c2" stroke-linecap="round" stroke-width="0.5"/><line y2="3.04" transform="translate(3.04 1.52) rotate(90)" fill="none" stroke="#1749c2" stroke-linecap="round" stroke-width="0.5"/><line y2="3.04" transform="translate(2.595 0.446) rotate(45)" fill="none" stroke="#1749c2" stroke-linecap="round" stroke-width="0.5"/><line y2="3.04" transform="translate(2.595 2.595) rotate(135)" fill="none" stroke="#1749c2" stroke-linecap="round" stroke-width="0.5"/></g><g transform="translate(9.12)"><line y2="3.04" transform="translate(1.52)" fill="none" stroke="#1749c2" stroke-linecap="round" stroke-width="0.5"/><line y2="3.04" transform="translate(3.04 1.52) rotate(90)" fill="none" stroke="#1749c2" stroke-linecap="round" stroke-width="0.5"/><line y2="3.04" transform="translate(2.595 0.446) rotate(45)" fill="none" stroke="#1749c2" stroke-linecap="round" stroke-width="0.5"/><line y2="3.04" transform="translate(2.595 2.595) rotate(135)" fill="none" stroke="#1749c2" stroke-linecap="round" stroke-width="0.5"/></g></g></g></g></g></g></svg>