<svg xmlns="http://www.w3.org/2000/svg" width="24" height="24" viewBox="0 0 24 24"><g transform="translate(-203 -347)"><g transform="translate(14 -9)"><g transform="translate(189 356)"><rect width="24" height="24" fill="none"/><rect width="20" height="20" transform="translate(2 2)" fill="none"/><rect width="20" height="20" transform="translate(2 2)" fill="none"/><path d="M18.942,4H5.058A2.46,2.46,0,0,0,2.5,6.333v8a2.46,2.46,0,0,0,2.558,2.333H6.885V20l4.28-3.256a.389.389,0,0,1,.234-.077h7.543A2.46,2.46,0,0,0,21.5,14.333v-8A2.46,2.46,0,0,0,18.942,4Z" fill="none" stroke="#333" stroke-linejoin="round" stroke-width="1.5"/><g transform="translate(6.583 9.666)"><path d="M11.383,15.25a1.289,1.289,0,0,1,1.383,1.167,1.289,1.289,0,0,1-1.383,1.167A1.289,1.289,0,0,1,10,16.417a1.289,1.289,0,0,1,1.383-1.167" transform="translate(-10 -15.25)" fill="#1749c2"/><path d="M20.383,15.25a1.289,1.289,0,0,1,1.383,1.167,1.4,1.4,0,0,1-2.766,0,1.289,1.289,0,0,1,1.383-1.167" transform="translate(-14.966 -15.25)" fill="#1749c2"/><path d="M29.383,15.25a1.289,1.289,0,0,1,1.383,1.167,1.4,1.4,0,0,1-2.766,0,1.289,1.289,0,0,1,1.383-1.167" transform="translate(-19.933 -15.25)" fill="#1749c2"/></g><rect width="24" height="24" fill="none"/></g></g></g></svg>