<?xml version="1.0" encoding="UTF-8"?>
<svg id="_레이어_1" data-name="레이어 1" xmlns="http://www.w3.org/2000/svg" viewBox="0 0 32 30">
  <defs>
    <style>
      .cls-1 {
        fill: #231815;
        stroke-width: 0px;
      }

      .cls-2 {
        fill: none;
        stroke: #231815;
        stroke-linejoin: round;
        stroke-width: 1.3px;
      }
    </style>
  </defs>
  <path class="cls-2" d="m16,3.62C9.3,3.62,3.87,7.98,3.87,13.35c0,3.61,2.46,6.76,6.1,8.43l-1.21,4.59,4.47-3.56c.89.17,1.81.26,2.77.26,6.7,0,12.13-4.36,12.13-9.73S22.7,3.62,16,3.62Z"/>
  <g>
    <path class="cls-1" d="m7.83,16.78v-4.69h-1.58v-1.05h4.43v1.05h-1.58v4.69h-1.27Z"/>
    <path class="cls-1" d="m10.46,16.78l1.81-5.74h1.5l1.81,5.74h-1.32l-.77-2.93c-.08-.29-.16-.6-.24-.92-.08-.32-.15-.63-.23-.93h-.03c-.07.3-.15.62-.23.93-.08.32-.16.63-.24.92l-.77,2.93h-1.28Zm1.17-1.4v-.97h2.75v.97h-2.75Z"/>
    <path class="cls-1" d="m16.22,16.78v-5.74h1.26v4.68h2.29v1.06h-3.55Z"/>
    <path class="cls-1" d="m20.77,16.78v-5.74h1.26v2.38h.02l1.76-2.38h1.39l-1.75,2.28,2.05,3.46h-1.38l-1.42-2.46-.69.9v1.56h-1.26Z"/>
  </g>
</svg>