<?xml version="1.0" encoding="UTF-8"?>
<svg id="_레이어_1" data-name="레이어 1" xmlns="http://www.w3.org/2000/svg" viewBox="0 0 32 30">
  <defs>
    <style>
      .cls-1 {
        fill: none;
        stroke: #231815;
        stroke-linecap: round;
        stroke-linejoin: round;
        stroke-width: 1.3px;
      }
    </style>
  </defs>
  <g>
    <circle class="cls-1" cx="8.99" cy="7" r="1.98"/>
    <path class="cls-1" d="m4.98,15.01c0-2.21,1.8-4.01,4.01-4.01,1.15,0,2.19.49,2.93,1.27"/>
  </g>
  <g>
    <circle class="cls-1" cx="23.01" cy="7" r="1.98"/>
    <path class="cls-1" d="m19.98,12.38c.74-.85,1.82-1.38,3.03-1.38,2.21,0,4.01,1.8,4.01,4.01"/>
  </g>
  <g>
    <circle class="cls-1" cx="16" cy="6.02" r="2.23"/>
    <path class="cls-1" d="m11.5,15.01c0-2.49,2.02-4.5,4.5-4.5s4.5,2.02,4.5,4.5"/>
  </g>
  <g>
    <path class="cls-1" d="m12.15,22.76c.36.1,1.17.2,1.55.2h6.99c.54,0,1.04-.19,1.43-.5,1.12-.9,2.38-1.61,3.69-2.2l1.31-.59c.66-.3.96-1.08.66-1.75s-1.08-.96-1.75-.66l-3.8,1.7c-.06-.05-.13-.1-.19-.15.26-.27.42-.61.42-.98,0-.85-.8-1.55-1.79-1.55h-3.38c-.53,0-1.03-.16-1.48-.44-.79-.49-1.76-.83-2.81-.83-1.88,0-3.51,1.08-4.28,2.16"/>
    <rect class="cls-1" x="4.42" y="19.19" width="7.67" height="4.93" transform="translate(21.91 2.94) rotate(56.99)"/>
    <path class="cls-1" d="m17.16,16.28h3.53c.98,0,1.79.7,1.79,1.55h0c0,.85-.8,1.55-1.79,1.55h-4.19"/>
  </g>
</svg>