<?xml version="1.0" encoding="UTF-8"?>
<svg id="_레이어_1" data-name="레이어 1" xmlns="http://www.w3.org/2000/svg" viewBox="0 0 32 30">
  <defs>
    <style>
      .cls-1 {
        stroke-linecap: round;
      }

      .cls-1, .cls-2, .cls-3 {
        fill: none;
      }

      .cls-1, .cls-3 {
        stroke: #231815;
        stroke-linejoin: round;
        stroke-width: 1.3px;
      }

      .cls-2 {
        stroke-width: 0px;
      }
    </style>
  </defs>
  <path class="cls-2" d="m13.54,15.56c0,.68.28,1.3.72,1.74l1.74-1.74h-2.46Z"/>
  <path class="cls-2" d="m17.74,17.3c.45-.45.72-1.06.72-1.74h-2.46l1.74,1.74Z"/>
  <path class="cls-2" d="m16,15.56l-1.74,1.74c.45.45,1.06.72,1.74.72v-2.46h0Z"/>
  <path class="cls-2" d="m16,15.56v2.46c.68,0,1.3-.28,1.74-.72l-1.74-1.74h0Z"/>
  <path class="cls-2" d="m16,15.56l-1.74-1.74c-.45.45-.72,1.06-.72,1.74h2.46Z"/>
  <path class="cls-2" d="m17.74,13.82c-.45-.45-1.06-.72-1.74-.72v2.46l1.74-1.74Z"/>
  <polygon class="cls-2" points="16 15.56 16 15.56 16 15.56 16 15.56"/>
  <path class="cls-2" d="m16,13.09c-.68,0-1.3.28-1.74.72l1.74,1.74v-2.46Z"/>
  <polygon class="cls-2" points="16 15.56 16 15.56 16 15.56 16 15.56"/>
  <path class="cls-2" d="m16,15.56h0s2.46,0,2.46,0c0-.68-.28-1.3-.72-1.74l-1.74,1.74Z"/>
  <path class="cls-3" d="m14.26,17.3l-6.45,6.45,6.45-6.45c-.45-.45-.72-1.06-.72-1.74H4.41c0,6.4,5.19,11.59,11.59,11.59v-9.13c-.68,0-1.3-.28-1.74-.72Z"/>
  <path class="cls-3" d="m18.46,15.56c0,.68-.28,1.3-.72,1.74l6.45,6.45-6.45-6.45c-.45.45-1.06.72-1.74.72v9.13c6.4,0,11.59-5.19,11.59-11.59h-9.13Z"/>
  <path class="cls-3" d="m16,13.09v-5.05l-2.23-3.86c-2.31.45-4.37,1.58-5.97,3.18l6.45,6.45c.45-.45,1.06-.72,1.74-.72Z"/>
  <path class="cls-3" d="m18.46,15.56h9.13c0-3.2-1.3-6.1-3.39-8.2l-6.45,6.45c.45.45.72,1.06.72,1.74Z"/>
  <path class="cls-3" d="m16,13.09c.68,0,1.3.28,1.74.72l6.45-6.45c-1.6-1.6-3.66-2.73-5.97-3.18l-2.23,3.86v5.05Z"/>
  <path class="cls-3" d="m14.26,13.82l-6.45-6.45c-2.1,2.1-3.39,4.99-3.39,8.2h9.13c0-.68.28-1.3.72-1.74Z"/>
  <path class="cls-1" d="m18.23,4.19l.77-1.33h-6l.77,1.33"/>
</svg>