<?xml version="1.0" encoding="UTF-8"?>
<svg id="_레이어_1" data-name="레이어 1" xmlns="http://www.w3.org/2000/svg" viewBox="0 0 32 30">
  <defs>
    <style>
      .cls-1 {
        stroke-linejoin: round;
      }

      .cls-1, .cls-2 {
        fill: none;
        stroke: #231815;
        stroke-linecap: round;
        stroke-width: 1.3px;
      }

      .cls-2 {
        stroke-miterlimit: 10;
      }
    </style>
  </defs>
  <path class="cls-2" d="m25.21,10.99h0c0-1.43-1.17-2.6-2.6-2.6h-2.6"/>
  <path class="cls-2" d="m19.23,11.38c.48-.56.77-1.27.77-2.03,0-1.84-1.67-3.34-3.74-3.34s-3.74,1.5-3.74,3.34c0,.76.29,1.47.77,2.03"/>
  <path class="cls-1" d="m4.65,3.44h4.23l4.43,16.15h11.87l2.05-5.6c.44-1.2-.45-2.47-1.73-2.47h-14.41"/>
  <path class="cls-1" d="m23.22,19.6h-9.66c-1.02,0-1.85.83-1.85,1.85h0c0,1.02.83,1.85,1.85,1.85h13.36"/>
  <g>
    <path class="cls-1" d="m13.03,24.61c0,1.08.87,1.95,1.95,1.95s1.95-.87,1.95-1.95c0-.51-.2-.96-.51-1.31h-2.88c-.32.35-.51.8-.51,1.31Z"/>
    <path class="cls-1" d="m23.02,23.29c-.32.35-.51.8-.51,1.31,0,1.08.87,1.95,1.95,1.95s1.95-.87,1.95-1.95c0-.51-.2-.96-.51-1.31h-2.88Z"/>
  </g>
</svg>