<?xml version="1.0" encoding="UTF-8"?>
<svg id="_레이어_1" data-name="레이어 1" xmlns="http://www.w3.org/2000/svg" viewBox="0 0 32 30">
  <defs>
    <style>
      .cls-1 {
        fill: none;
        stroke: #231815;
        stroke-linecap: round;
        stroke-linejoin: round;
        stroke-width: 1.3px;
      }
    </style>
  </defs>
  <path class="cls-1" d="m6.78,13.59h18.44v10.66c0,.98-.8,1.78-1.78,1.78h-14.88c-.98,0-1.78-.8-1.78-1.78v-10.66h0Z"/>
  <rect class="cls-1" x="10.23" y="17.51" width="11.54" height="4.65" rx="1.71" ry="1.71"/>
  <path class="cls-1" d="m23.63,3.96h-15.27c-.94,0-1.77.59-2.04,1.45l-1.74,5.58c-.4,1.3.62,2.6,2.04,2.6h18.74c1.42,0,2.44-1.3,2.04-2.6l-1.74-5.58c-.27-.86-1.1-1.45-2.04-1.45Z"/>
  <g>
    <line class="cls-1" x1="16" y1="3.96" x2="16" y2="13.59"/>
    <line class="cls-1" x1="11.37" y1="4.01" x2="9.95" y2="13.55"/>
    <line class="cls-1" x1="20.63" y1="4.01" x2="22.05" y2="13.55"/>
  </g>
</svg>